# xmcd
#
# Track frame offsets:
# 150
# 17242
# 33372
# 50516
# 69134
# 85104
# 101986
#
# Disc length: 1615 seconds
#
#
# Revision: 0
# Processed by: cddbd v1.5.1PL2 Copyright (c) Steve Scherf et al.
# Submitted via: FreeRIP 2.944 
#
DISCID=52064d07
DTITLE=Destak do Samba - Histórico
DYEAR=2006
DGENRE=Samba
TTITLE0=Noite Fria
TTITLE1=Seu Eterno Namorado
TTITLE2=É Tara
TTITLE3=Orgulho
TTITLE4=Distância
TTITLE5=Medo da Paixão
TTITLE6=Contando as Horas
EXTD=Visite www.destakdosamba.com.br
EXTT0=
EXTT1=
EXTT2=
EXTT3=
EXTT4=
EXTT5=
EXTT6=
PLAYORDER=
